<?xml version="1.0" encoding="UTF-8"?>
<svg xmlns="http://www.w3.org/2000/svg" version="1.1" viewBox="0 0 110 135">
  <!-- Generator: Adobe Illustrator 28.7.1, SVG Export Plug-In . SVG Version: 1.2.0 Build 142)  -->
  <g>
    <g id="Layer_1">
      <path d="M37.9,77.1l12.2-17.1-12.2-17.1h0c-.4-.6-.5-1.3-.1-2s1-1,1.7-1h2.4c.6,0,1.2.3,1.5.8l13,18.2c.5.7.5,1.5,0,2.2l-13,18.2c-.4.5-.9.8-1.5.8h-2.4c-.7,0-1.4-.4-1.7-1s-.3-1.4.1-2h0ZM55,77.1l12.2-17.1-12.2-17.1c-.4-.6-.5-1.3-.1-2,.3-.6,1-1,1.7-1h2.4c.6,0,1.2.3,1.5.8l13,18.2c.5.7.5,1.5,0,2.2l-13,18.2c-.4.5-.9.8-1.5.8h-2.4c-.7,0-1.4-.4-1.7-1-.3-.6-.3-1.4.1-2h0Z"/>
    </g>
  </g>
</svg>