<?xml version="1.0" encoding="UTF-8"?>
<svg id="Layer_2" xmlns="http://www.w3.org/2000/svg" viewBox="0 0 165.28 49.03">
  <defs>
    <style>
      .cls-1 {
        fill: #53b1e3;
      }

      .cls-1, .cls-2 {
        stroke: #53b1e3;
        stroke-miterlimit: 10;
      }

      .cls-2 {
        fill: none;
      }
    </style>
  </defs>
  <g id="Layer_1-2" data-name="Layer_1">
    <g>
      <path class="cls-1" d="M63.33,31.17l-3.24,11.38-1.3,5.98h-18.43L57,.5h19.3l17.14,48.03h-18.5l-1.58-5.98-3.03-11.38M70.32,31.17l-2.23-9.22c-.43-1.87-.72-3.67-.94-5.4h-.65c-.07,2.02-.36,3.67-.79,5.4l-2.38,9.22"/>
      <path class="cls-2" d="M76.29.5h16.64l6.7,22.61c.58,1.87.94,4.68,1.08,6.41h.43c.07-1.94.43-4.39,1.01-6.41L108.7.5h18.22l-18.58,48.03h-14.98L76.29.5Z"/>
    </g>
    <path class="cls-2" d="M131.29,43.76v-11.61l15.77-4.67c1.31-.4,3.26-.65,4.47-.75v-.3c-1.36-.05-3.06-.3-4.47-.7l-15.77-4.57v-12.7l33.5,12.96v10.45l-33.5,11.91Z"/>
    <path class="cls-2" d="M34,43.76v-11.61l-15.77-4.67c-1.31-.4-3.26-.65-4.47-.75v-.3c1.36-.05,3.06-.3,4.47-.7l15.77-4.57v-12.7L.5,21.41v10.45l33.5,11.91Z"/>
  </g>
</svg>