<?xml version="1.0" encoding="UTF-8"?>
<svg id="Layer_2" xmlns="http://www.w3.org/2000/svg" xmlns:xlink="http://www.w3.org/1999/xlink" viewBox="0 0 212.15 213.18">
  <defs>
    <style>
      .cls-1 {
        fill: #f0526e;
      }

      .cls-2 {
        fill: #231f20;
      }

      .cls-3 {
        fill: #3a2827;
      }

      .cls-4 {
        fill: #3b4280;
      }

      .cls-5 {
        fill: #fff;
      }

      .cls-6 {
        fill: #d5b796;
      }

      .cls-7 {
        fill: none;
      }

      .cls-8 {
        fill: #867e8f;
      }

      .cls-9 {
        fill: #4d4237;
      }

      .cls-10 {
        fill: #2a2c6a;
      }

      .cls-11 {
        fill: #fedab5;
      }

      .cls-12 {
        fill: #52afe0;
      }

      .cls-13 {
        clip-path: url(#clippath);
      }

      .cls-14 {
        fill: #4a312c;
      }
    </style>
    <clipPath id="clippath">
      <ellipse class="cls-7" cx="106.07" cy="106.59" rx="106.07" ry="106.59"/>
    </clipPath>
  </defs>
  <g id="Layer_1-2" data-name="Layer_1">
    <g class="cls-13">
      <rect class="cls-12" x="-18.67" width="252.39" height="226.06"/>
      <g>
        <path class="cls-10" d="M68.25,173.38s-56.49,3.61-71.97,43.48h219.58c-15.48-39.88-71.97-43.48-71.97-43.48"/>
        <polygon class="cls-5" points="124.28 217.83 92.02 218.09 95.24 182.14 120.81 182.14 124.28 217.83"/>
        <path class="cls-11" d="M68.4,167.6v-28.98h79.57v28.98c0,19.51-17.81,35.32-39.79,35.32h0c-21.97,0-39.79-15.81-39.79-35.32Z"/>
        <g>
          <g>
            <g>
              <g>
                <rect class="cls-11" x="48.32" y="83.46" width="18.7" height="36.69" rx="7.22" ry="7.22"/>
                <rect class="cls-11" x="57.86" y="33.13" width="99.94" height="135.76" rx="49.97" ry="49.97"/>
                <polygon class="cls-3" points="61.34 106.59 57.67 106.59 57.67 67.09 68.4 67.09 61.34 106.59"/>
                <rect class="cls-11" x="149.35" y="83.46" width="18.7" height="36.69" rx="7.22" ry="7.22" transform="translate(317.4 203.6) rotate(-180)"/>
                <path class="cls-3" d="M156.7,106.59h0c1.1,0,2-.9,1.99-2l-.18-35.52c0-1.1-.9-1.98-1.99-1.98h-6.17c-1.24,0-2.18,1.12-1.96,2.34l6.35,35.52c.17.95,1,1.64,1.96,1.64Z"/>
                <path class="cls-3" d="M173.71,47.77c1.84,1.7,2.97,4.01,2.97,6.55,0,3.9-2.65,7.25-6.44,8.71-1.45,5.42-7.56,9.48-14.87,9.48-4.04,0-7.71-1.24-10.43-3.26-2.64,3.76-7.61,6.29-13.3,6.29s-10.4-2.39-13.1-5.99c-2.73,1.86-6.1,2.96-9.74,2.96-3.39,0-6.54-.95-9.17-2.58-2.81,1.64-6.09,2.58-9.59,2.58-3.09,0-6-.73-8.57-2.03-3.75,1.95-8.45,3.1-13.56,3.1-9.17,0-17.02-3.71-20.38-9.01-5.51-2.25-9.18-6.29-9.18-10.91,0-2.54,1.11-4.9,3.03-6.89-1.93-2.29-3.03-4.95-3.03-7.79,0-4.14,2.33-7.9,6.16-10.69-.23-1.14-.35-2.32-.35-3.52,0-10.56,9.03-19.13,20.19-19.13,4.32,0,8.32,1.28,11.59,3.48,3.36-2.21,7.54-3.52,12.08-3.52,1.54,0,3.04.15,4.47.44,2.95-5.17,8.73-8.69,15.36-8.69,7.86,0,14.52,4.95,16.7,11.76,3.27-2.75,7.69-4.42,12.55-4.42s8.89,1.53,12.1,4.07c2.67-1.81,5.88-2.85,9.33-2.85,9.36,0,16.94,7.7,16.94,17.2,0,1.93-.32,3.79-.9,5.52,1.59,2.46,2.53,5.57,2.53,8.95,0,3.97-1.31,7.57-3.42,10.19Z"/>
                <path class="cls-3" d="M140.13,150.08s-1.48-23.97-23.24-23.37c-5.06,0-13.33,0-18.4,0-21.77-.6-21.46,22.82-21.46,22.82-11.78-30.05,18.59-31.44,27.82-31.17,1.88.06,3.75.06,5.63,0,9.19-.28,41.45,1.63,29.64,31.71Z"/>
                <path class="cls-14" d="M54.89,54.11c.15,8.01,2.8,17.96,15.85,14,.99-.3,1.31-1.98.41-2.13-4.7-.76-11.84-3.49-14.5-12.81-.3-1.05-1.78-.26-1.76.93Z"/>
                <path class="cls-14" d="M59.96,27.4c-5.88,2.23-13.08,7.31-9.65,18.53.26.85,1.51.71,1.58-.17.37-4.61,2.09-12.02,8.82-16.95.76-.55.12-1.74-.75-1.41Z"/>
                <path class="cls-14" d="M71.73,12.25c-5.86-2.28-14.61-3.34-19.58,7.28-.38.81.64,1.54,1.29.93,3.36-3.17,9.61-7.52,17.91-6.66.93.1,1.26-1.21.38-1.55Z"/>
                <path class="cls-14" d="M69.8,38.68c6.15,1.32,14.96.98,18.17-10.3.24-.86-.88-1.42-1.42-.71-2.82,3.66-8.29,8.95-16.62,9.42-.94.05-1.05,1.39-.13,1.59Z"/>
                <path class="cls-14" d="M102.83,48.26c-4.81,1.03-11.69.76-14.2-8.05-.19-.67.69-1.11,1.11-.56,2.2,2.86,6.48,7,12.99,7.36.73.04.82,1.09.1,1.24Z"/>
                <path class="cls-14" d="M131.4,25.95c-2.4-4.29-7.14-9.29-15.42-5.36-.63.3-.38,1.25.31,1.2,3.6-.24,9.53.25,14.11,4.9.51.52,1.36-.1,1-.74Z"/>
                <path class="cls-14" d="M113.09,49.92c2.4-4.29,7.14-9.29,15.42-5.36.63.3.38,1.25-.31,1.2-3.6-.24-9.53.25-14.11,4.9-.51.52-1.36-.1-1-.74Z"/>
                <path class="cls-14" d="M59.17,49.92c2.4-4.29,7.14-9.29,15.42-5.36.63.3.38,1.25-.31,1.2-3.6-.24-9.53.25-14.11,4.9-.51.52-1.36-.1-1-.74Z"/>
                <path class="cls-14" d="M124.36,39.06c6.15,1.32,14.96.98,18.17-10.3.24-.86-.88-1.42-1.42-.71-2.82,3.66-8.29,8.95-16.62,9.42-.94.05-1.05,1.39-.13,1.59Z"/>
                <path class="cls-14" d="M139.18,49.88c6.15,1.32,14.96.98,18.17-10.3.24-.86-.88-1.42-1.42-.71-2.82,3.66-8.29,8.95-16.62,9.42-.94.05-1.05,1.39-.13,1.59Z"/>
                <path class="cls-14" d="M99.66,24.31c-.08,6.75,1.75,14.98,12.06,10.77.78-.32,1.08-1.76.37-1.82-3.66-.33-9.18-2.16-11.03-9.85-.21-.86-1.39-.11-1.4.9Z"/>
                <path class="cls-14" d="M148.19,18.96c-3.47-5.24-10.02-11.15-20.2-5.33-.77.44-.36,1.63.52,1.5,4.58-.65,12.18-.61,18.47,4.87.71.62,1.72-.26,1.21-1.05Z"/>
                <path class="cls-14" d="M171.04,23.18c-1.41-6.13-5.47-13.96-17.04-12.07-.88.14-.91,1.4-.04,1.59,4.51.99,11.63,3.7,15.59,11.04.45.83,1.71.36,1.5-.56Z"/>
                <path class="cls-14" d="M164.02,26.14c5.01,3.8,10.5,10.7,4.04,20.49-.49.74-1.65.26-1.47-.61.94-4.53,1.38-12.12-3.7-18.74-.57-.74.37-1.7,1.12-1.14Z"/>
                <path class="cls-14" d="M79.32,53.5c1.16,6.18,4.88,14.17,16.52,12.78.88-.11.97-1.36.11-1.59-4.47-1.18-11.46-4.18-15.11-11.69-.41-.84-1.69-.43-1.52.49Z"/>
                <path class="cls-14" d="M98.5,59.51c4.06,3.72,10.86,7.36,18.28.27.56-.54-.03-1.46-.76-1.17-3.75,1.52-10.22,3.09-16.72-.25-.73-.37-1.41.59-.8,1.14Z"/>
                <path class="cls-14" d="M98.41,10.74c4.64-4.25,12.41-8.41,20.89-.31.64.61-.04,1.67-.86,1.33-4.28-1.74-11.68-3.53-19.1.28-.83.43-1.61-.67-.92-1.31Z"/>
                <path class="cls-14" d="M75.22,22.95c3.16-5.44,9.34-11.72,19.85-6.51.8.4.46,1.6-.43,1.53-4.61-.38-12.2.1-18.16,5.95-.67.66-1.74-.16-1.27-.97Z"/>
                <path class="cls-14" d="M123.59,64.05c6.04,1.77,14.85,2.06,18.87-8.95.31-.84-.77-1.48-1.36-.82-3.08,3.45-8.92,8.33-17.26,8.19-.94-.02-1.15,1.31-.25,1.58Z"/>
                <path class="cls-14" d="M148.39,66.2c7.47,2.41,17.59,3.11,18.44-10.3.06-1.02-1.38-1.85-1.83-1.06-2.33,4.13-7.32,9.92-16.86,9.43-1.07-.05-.86,1.57.25,1.93Z"/>
              </g>
              <path class="cls-3" d="M83.9,163.32c-33.96-18.97-26.24-60.41-26.24-60.41h3.68,0c-.11,2.28.33,4.55,1.26,6.64,10.61,23.86,22.79,38.97,31.99,48.61,1.81,1.9,4.3,3.12,6.98,3.36,4.61.41,9.26.41,13.87,0,2.76-.24,5.29-1.5,7.11-3.48,8.92-9.65,20.7-24.73,31.25-48.51.92-2.08,1.36-4.35,1.25-6.63h0s3.68,0,3.68,0c0,0,5.91,39.65-22.02,58.84-15.53,10.67-36.28,10.8-52.81,1.57Z"/>
            </g>
            <g>
              <g>
                <path class="cls-6" d="M106.86,97.42l-6.42,13.68c-.69,1.48,0,3.24,1.53,3.83l2.37.93c2.38.93,5.03.83,7.33-.26l2.05-.98c1.38-.66,1.98-2.29,1.37-3.68l-5.9-13.49c-.44-1.01-1.86-1.03-2.33-.03Z"/>
                <g>
                  <g>
                    <path class="cls-9" d="M86.69,131.3c-2.17,0-3.47,2.29-2.28,4.01l3.94,5.69c1.23,1.78,2.62,3.33,4.11,4.66h0s6.58-4.47,14.21-1.72c.55.2,1.15.25,1.73.11,4.75-1.18,9.58-2.02,14.61,1.6v.03c1.5-1.33,2.89-2.89,4.13-4.68l3.94-5.69c1.19-1.72-.11-4.01-2.28-4.01h-42.12Z"/>
                    <path class="cls-1" d="M108.42,143.9c-.58.14-1.18.09-1.74-.11-7.63-2.74-14.21,1.86-14.21,1.86h0c8.86,7.88,21.68,7.89,30.54.03v-.03c-5.02-3.61-9.84-2.91-14.59-1.75Z"/>
                  </g>
                  <path class="cls-5" d="M127.59,131.3h-38.26l1.11,2.08c.71,1.33,2.17,2.17,3.77,2.17h14.99-1.48,14.99c1.6,0,3.05-.84,3.77-2.17l1.11-2.08h-38.26"/>
                </g>
              </g>
              <path class="cls-14" d="M106.53,159.34l-2.38-4.12c-.54-.94.14-2.11,1.22-2.11h4.76c1.08,0,1.76,1.17,1.22,2.11l-2.38,4.12c-.54.94-1.89.94-2.43,0Z"/>
            </g>
          </g>
          <g>
            <path class="cls-2" d="M97.86,99.16c.5.48,1.32-.01,1.13-.68-1.2-4.37-5.65-7.62-10.96-7.62s-9.7,3.21-10.94,7.54c-.19.67.64,1.16,1.14.67,1.68-1.67,4.82-3.91,9.58-3.91,5.02,0,8.32,2.32,10.04,4Z"/>
            <path class="cls-3" d="M97.6,85.91c1.41.39,2.38-1.44,1.27-2.39-3.24-2.76-9.15-3.9-15.44-2.58s-11.36,4.81-13.17,8.69c-.63,1.34,1,2.59,2.15,1.66,2.31-1.87,6.2-4.22,12.05-5.45s10.33-.7,13.15.07Z"/>
          </g>
          <g>
            <path class="cls-2" d="M119.2,99.16c-.5.48-1.32-.01-1.13-.68,1.2-4.37,5.65-7.62,10.96-7.62s9.7,3.21,10.94,7.54c.19.67-.64,1.16-1.14.67-1.68-1.67-4.82-3.91-9.58-3.91-5.02,0-8.32,2.32-10.04,4Z"/>
            <path class="cls-3" d="M119.46,85.91c-1.41.39-2.38-1.44-1.27-2.39,3.24-2.76,9.15-3.9,15.44-2.58s11.36,4.81,13.17,8.69c.63,1.34-1,2.59-2.15,1.66-2.31-1.87-6.2-4.22-12.05-5.45s-10.33-.7-13.15.07Z"/>
          </g>
        </g>
        <path class="cls-8" d="M97.37,192.73l.13,9.21c-.02.5-.75.81-1.37.59l-7.26-2.64,8.5-7.15Z"/>
        <path class="cls-8" d="M118.98,192.94v9.35c0,.44.65.71,1.19.51l7.42-2.7-8.61-7.16Z"/>
        <path class="cls-4" d="M69.07,169.62c1.91,4.92,8.55,17.46,27.65,22.35.56.14.85.76.59,1.28l-5.64,11.03c-.95,1.86-3.35,2.41-5.01,1.14-7.55-5.8-25.29-21.37-19.26-35.8.31-.75,1.38-.75,1.68,0Z"/>
        <path class="cls-4" d="M147.33,170.33c-1.9,4.8-8.53,17.14-27.67,21.94-.56.14-.84.76-.58,1.26l6.12,11.75c.69,1.33,2.4,1.73,3.61.85,6.91-5.06,26.5-21.05,20.16-35.83-.32-.73-1.35-.72-1.65.02Z"/>
        <ellipse class="cls-5" cx="88.39" cy="201.95" rx="1.98" ry="2.06"/>
      </g>
    </g>
  </g>
</svg>